# xmcd
#
# Track frame offsets:
# 150
# 18056
# 36719
# 59630
# 80539
# 105151
# 129029
# 152591
# 169615
# 193035
# 212519
# 228569
#
# Disc length: 3377 seconds
#
#
# Revision: 1
# Processed by: cddbd v1.5.2PL0 Copyright (c) Steve Scherf et al.
# Submitted via: FreeRIP 2.96 
#
DISCID=910d2f0c
DTITLE=Tallis, Steve [AUS] - The First Degree
DYEAR=2014
DGENRE=Blues
TTITLE0=The First Degree (Erzulie) [from 'The First Degree', 2014] [MLVox]
TTITLE1=Athena Booboo [from 'The First Degree', 2014] [MLVox]
TTITLE2=Like Mercury (In My Blood) [from 'The First Degree', 2014] [MLVox]
TTITLE3=Speak of the Devil (Secrets of the 24 Moons) [from 'The First Degree', 2014] [MLVox]
TTITLE4=A Promise Is a Cloud [from 'The First Degree', 2014] [MLVox]
TTITLE5=Silence in the House of God [from 'The First Degree', 2014] [MLVox]
TTITLE6=Be the Echo of My Cry [from 'The First Degree', 2014] [MLVox]
TTITLE7=To Live Again [from 'The First Degree', 2014] [MLVox]
TTITLE8=Breathless [from 'The First Degree', 2014] [MLVox]
TTITLE9=Living in Hell [from 'The First Degree', 2014] [MLVox]
TTITLE10=The Panic Will Be On [from 'The First Degree', 2014] [MLVox]
TTITLE11=You Kill Me [from 'The First Degree', 2014] [MLVox]
EXTD=Australian artist from Perth, Western Australia
EXTT0=
EXTT1=
EXTT2=
EXTT3=
EXTT4=
EXTT5=
EXTT6=
EXTT7=
EXTT8=
EXTT9=
EXTT10=
EXTT11=
PLAYORDER=
